# xmcd
#
# Track frame offsets:
#	180
#	28242
#	36052
#	67399
#	106307
#	135224
#	158319
#	189066
#	209961
#	238813
#	259489
#
# Disc length: 4048 seconds
#
# Revision: 0
# Processed by: cddbd v1.5.1PL0 Copyright (c) Steve Scherf et al.
# Submitted via: dBpowerAMP V4.0
#
DISCID=9c0fce0b
DTITLE=IRAKERE - Grandes exitos IRAKERE
DYEAR=1900
DGENRE=Latino
TTITLE0=Dile a Catalina - Son Montuno
TTITLE1=Preludio a Catalina - Preludio
TTITLE2=Calzada del cerro - Cha cha cha
TTITLE3=El Tata - Son Bata
TTITLE4=Boliviana - Bolero Son
TTITLE5=Xiomara Mayoral - Guaguanco
TTITLE6=A Chano Pozo - Instrumental
TTITLE7=La vida es un sueño - Bolero
TTITLE8=No quiero confusion - Son
TTITLE9=Adagio - Instrumental
TTITLE10=Estela va a estallar - Instrumental
EXTD=Grandes exitos IRAKERE
EXTT0=
EXTT1=
EXTT2=
EXTT3=
EXTT4=
EXTT5=
EXTT6=
EXTT7=
EXTT8=
EXTT9=
EXTT10=
PLAYORDER=
